<svg width="196" height="196" viewBox="0 0 196 196" fill="none" xmlns="http://www.w3.org/2000/svg">
<path d="M96.2021 7.90748L93.6426 10.5667C94.6584 11.8229 95.6026 12.9405 96.4752 13.9195L93.5664 14.1103L92.9476 13.247C92.5419 12.6636 92.2745 12.2843 92.1454 12.109L91.2891 13.003L91.3711 14.2543L88.8466 14.4199C88.8139 13.0257 88.7508 11.6152 88.6572 10.1882C88.5631 8.75398 88.4395 7.31799 88.2864 5.88026L90.811 5.71465L91.1163 10.3687C91.7785 9.59765 92.4018 8.84758 92.986 8.11844L96.2021 7.90748Z" fill="#7E8AA0"/>
<path d="M84.6013 10.6434C84.7402 9.50244 85.4151 8.84037 86.626 8.65719C86.8363 8.62538 87.0415 8.60917 87.2416 8.60856L87.2622 11.0975C86.7105 10.9807 86.2679 10.9475 85.9343 10.998C85.521 11.0605 85.2351 11.2298 85.0767 11.506C84.9182 11.7821 84.8702 12.1268 84.9327 12.5401L84.9311 12.5293L85.0288 13.2487C85.1067 13.7636 85.2078 14.3342 85.3323 14.9606L82.7329 15.3538C82.6329 14.301 82.5127 13.3105 82.3723 12.3823C82.2319 11.4542 82.0526 10.4653 81.8345 9.41542C82.3163 9.36477 82.6842 9.32026 82.9379 9.28186C83.2062 9.24128 83.5707 9.17501 84.0315 9.08306L84.6013 10.6434Z" fill="#7E8AA0"/>
<path d="M78.4731 16.4142C77.2533 16.7052 76.2882 16.6413 75.5777 16.2228C74.8726 15.7953 74.4112 15.1251 74.1934 14.2121C73.9807 13.3204 74.0934 12.5283 74.5313 11.8358C74.9764 11.1416 75.8088 10.6491 77.0286 10.3581C77.8489 10.1625 78.5661 10.1347 79.18 10.2747C79.7993 10.4059 80.2954 10.6683 80.6682 11.0619C81.0393 11.4484 81.2921 11.9234 81.4265 12.4869C81.646 13.4071 81.5153 14.2185 81.0346 14.9212C80.561 15.6222 79.7071 16.1199 78.4731 16.4142ZM78.082 14.5851C78.5457 14.4745 78.8653 14.2814 79.0408 14.0058C79.2163 13.7302 79.2599 13.407 79.1714 13.0361C79.088 12.6865 78.9058 12.4284 78.6248 12.2617C78.3421 12.0879 77.9689 12.0563 77.5053 12.1669C77.0416 12.2775 76.7292 12.4689 76.5679 12.741C76.4066 13.0132 76.3685 13.3276 76.4536 13.6843C76.5421 14.0552 76.7197 14.3257 76.9864 14.4958C77.2532 14.6659 77.6184 14.6956 78.082 14.5851Z" fill="#7E8AA0"/>
<path d="M71.2304 16.5767L70.6951 12.1947L72.7606 11.4698L73.5974 17.5413L70.8261 18.5139L69.2433 16.0966L69.4353 19.002L66.7678 19.9382L63.6268 14.6754L65.6922 13.9505L67.9988 17.6992L67.1765 13.4296L69.2212 12.712L71.2304 16.5767Z" fill="#7E8AA0"/>
<path d="M60.2097 23.1039C59.0897 23.6679 58.1358 23.828 57.348 23.5843C56.5634 23.3308 55.9601 22.7848 55.5379 21.9464C55.1256 21.1277 55.0528 20.331 55.3195 19.5563C55.5928 18.7782 56.2894 18.1072 57.4094 17.5432C58.1626 17.1639 58.8541 16.9717 59.4837 16.9666C60.1166 16.9517 60.6598 17.0928 61.1132 17.3899C61.5634 17.6805 61.9187 18.0845 62.1793 18.6019C62.6048 19.4469 62.6645 20.2666 62.3585 21.0611C62.0591 21.8524 61.3428 22.5333 60.2097 23.1039ZM59.4079 21.4139C59.8336 21.1995 60.1002 20.938 60.2075 20.6294C60.3149 20.3209 60.2828 19.9963 60.1113 19.6557C59.9496 19.3348 59.7129 19.1255 59.4011 19.028C59.0859 18.924 58.7155 18.9792 58.2898 19.1936C57.864 19.408 57.604 19.6661 57.5098 19.9681C57.4156 20.2701 57.4509 20.5849 57.6158 20.9124C57.7873 21.2529 58.0225 21.4753 58.3212 21.5794C58.6199 21.6835 58.9822 21.6283 59.4079 21.4139Z" fill="#7E8AA0"/>
<path d="M54.4765 21.4298C53.8772 21.7428 53.3338 22.0347 52.8462 22.3055L53.4427 23.3075C53.6484 23.6458 53.8824 23.8683 54.1447 23.9749C54.4094 24.0714 54.7297 24.0053 55.1056 23.7767C55.2497 23.689 55.3799 23.5927 55.4963 23.4876C55.6122 23.7346 55.7426 23.9772 55.8874 24.2153C55.956 24.3281 56.1185 24.5812 56.3749 24.9746C56.1297 25.1923 55.9169 25.3647 55.7365 25.4915C55.5562 25.6184 55.3157 25.7732 55.0149 25.9561C54.2818 26.402 53.6551 26.5428 53.1347 26.3787C52.6167 26.2044 52.1653 25.8009 51.7805 25.1681L50.8239 23.5741C50.537 23.7657 50.2414 23.9712 49.9371 24.1906L48.9254 22.5271C49.2512 22.3289 49.4641 22.0579 49.5639 21.714C49.6637 21.37 49.6479 21.0406 49.5164 20.7257L52.0728 19.171C52.02 19.8039 51.8794 20.3701 51.651 20.8695L53.4648 19.7663L54.4765 21.4298Z" fill="#7E8AA0"/>
<path d="M47.9361 30.5432C47.3193 29.6579 46.7361 28.8531 46.1863 28.1288C45.9912 27.8718 45.7718 27.7161 45.528 27.6618C45.29 27.603 45.0747 27.6468 44.8819 27.7931C44.6892 27.9394 44.5921 28.1512 44.5908 28.4284C44.585 28.6998 44.6835 28.9933 44.8863 29.3089C45.2116 29.7617 45.4451 30.0816 45.587 30.2685C45.8885 30.6657 46.2305 31.092 46.613 31.5474L44.519 33.1369C43.9272 32.2603 43.3476 31.4482 42.7801 30.7005C42.2126 29.9528 41.5818 29.1703 40.8877 28.353C41.2865 28.0779 41.5882 27.8627 41.7926 27.7076C42.0087 27.5435 42.297 27.3108 42.6576 27.0096L43.8893 28.1047C43.669 27.5354 43.6177 27.0311 43.7354 26.5919C43.8487 26.1469 44.0952 25.7802 44.4749 25.492C44.8253 25.226 45.1889 25.0743 45.5657 25.0369C45.9379 24.9937 46.2881 25.0548 46.6161 25.2201C46.95 25.381 47.2411 25.625 47.4894 25.9521L48.4471 27.2138C49.0367 27.9906 49.5235 28.6016 49.9075 29.0468L47.9361 30.5432Z" fill="#7E8AA0"/>
<path d="M41.1754 32.4127L38.5276 34.831C38.7885 35.0297 39.0721 35.1282 39.3784 35.1265C39.6852 35.1145 39.9957 34.965 40.3097 34.6782C40.5372 34.4705 40.7115 34.2318 40.8327 33.9622C40.949 33.6872 40.9925 33.414 40.9633 33.1428C41.4893 32.9901 42.1468 32.7422 42.9357 32.3991C43.114 32.9314 43.085 33.5141 42.8487 34.147C42.6129 34.7696 42.1403 35.4048 41.4309 36.0526C40.5104 36.8934 39.6353 37.3053 38.8055 37.2885C37.9762 37.2613 37.2451 36.9011 36.6121 36.208C35.9939 35.5312 35.7112 34.7813 35.7641 33.9583C35.817 33.1354 36.3064 32.3011 37.2323 31.4554C37.7846 30.951 38.3479 30.6054 38.9222 30.4186C39.4964 30.2318 40.0427 30.2046 40.561 30.3371C41.0743 30.4642 41.5238 30.7389 41.9095 31.1613C42.0381 31.3021 42.1291 31.4126 42.1826 31.4929L41.1754 32.4127ZM38.4661 32.578C38.1954 32.8253 38.0204 33.0795 37.9411 33.3406C37.8617 33.6018 37.8685 33.8538 37.9613 34.0968L39.8782 32.3461C39.6549 32.2322 39.4232 32.1906 39.1831 32.2212C38.938 32.2464 38.699 32.3654 38.4661 32.578Z" fill="#7E8AA0"/>
<path d="M32.1043 36.5174C32.4247 36.1645 32.8136 35.9382 33.2708 35.8383C33.7281 35.7385 34.2019 35.7676 34.6923 35.9257C35.1773 36.0789 35.6261 36.3428 36.0386 36.7175C36.4458 37.0873 36.7597 37.5161 36.9804 38.0038C37.1957 38.4867 37.284 38.973 37.2453 39.4629C37.2061 39.9424 37.0213 40.364 36.6909 40.7277C36.3064 41.1511 35.8892 41.436 35.4394 41.5822C34.9891 41.7181 34.5128 41.6916 34.0105 41.503C34.3199 41.784 34.8265 42.2243 35.5302 42.8238C36.2122 43.4036 36.689 43.8167 36.9604 44.0632L35.289 45.9035C34.3089 44.9539 33.2678 43.9787 32.1658 42.9778C31.0638 41.9769 29.9931 41.0343 28.9538 40.1498L30.3738 38.5864L31.6061 39.2747C31.3642 38.7775 31.2944 38.2981 31.3968 37.8363C31.4937 37.3696 31.7296 36.93 32.1043 36.5174ZM34.4561 40.2434C34.678 39.9991 34.7868 39.7265 34.7828 39.4256C34.7782 39.1143 34.651 38.8453 34.4013 38.6185C34.1244 38.367 33.8301 38.2384 33.5184 38.2326C33.2066 38.2269 32.9324 38.3543 32.6957 38.6148C32.4246 38.9134 32.2932 39.2053 32.3018 39.4904C32.3049 39.7706 32.4747 40.0635 32.8113 40.3692C33.0013 40.5418 33.2058 40.6383 33.4248 40.659C33.6384 40.6746 33.8367 40.6417 34.0197 40.5603C34.1972 40.4739 34.3427 40.3682 34.4561 40.2434Z" fill="#7E8AA0"/>
<path d="M30.838 47.7327C30.0858 48.7361 29.3027 49.3039 28.4887 49.436C27.6733 49.5579 26.89 49.3374 26.139 48.7743C25.4055 48.2245 24.9859 47.5433 24.8802 46.7308C24.7788 45.9124 25.1042 45.0015 25.8564 43.9982C26.3623 43.3234 26.896 42.8437 27.4577 42.559C28.0179 42.2641 28.5671 42.1489 29.1054 42.2133C29.6378 42.2733 30.1358 42.4771 30.5994 42.8246C31.3563 43.392 31.7744 44.0996 31.8538 44.9473C31.9376 45.7892 31.599 46.7176 30.838 47.7327ZM29.3681 46.5758C29.6541 46.1944 29.7764 45.8417 29.7353 45.5176C29.6942 45.1934 29.5211 44.917 29.2159 44.6883C28.9284 44.4727 28.6233 44.3907 28.3007 44.4421C27.9722 44.4891 27.6649 44.7033 27.379 45.0847C27.0931 45.466 26.9751 45.8129 27.025 46.1253C27.075 46.4377 27.2466 46.7039 27.54 46.9238C27.8451 47.1526 28.1546 47.2471 28.4685 47.2074C28.7823 47.1678 29.0822 46.9572 29.3681 46.5758Z" fill="#7E8AA0"/>
<path d="M24.7966 53.0908C24.6284 53.3662 24.4048 53.5776 24.1257 53.7251C23.8466 53.8726 23.5492 53.9445 23.2335 53.9408C22.9154 53.927 22.6187 53.836 22.3433 53.6678C22.0742 53.5035 21.864 53.2849 21.7127 53.012C21.5652 52.7329 21.4933 52.4355 21.497 52.1199C21.5008 51.8042 21.5867 51.5087 21.7549 51.2333C21.9192 50.9642 22.1409 50.7559 22.4201 50.6084C22.6992 50.4609 22.9965 50.3891 23.3122 50.3928C23.6278 50.3965 23.9202 50.4805 24.1893 50.6449C24.4647 50.8131 24.6793 51.0386 24.833 51.3215C24.9805 51.6006 25.0524 51.898 25.0487 52.2137C25.0449 52.5293 24.9609 52.8217 24.7966 53.0908Z" fill="#7E8AA0"/>
<path d="M18.8378 54.9506L19.8808 58.491C21.4752 58.2306 22.9136 57.9637 24.1963 57.6904L22.9217 60.3119L21.8652 60.4221C21.1575 60.4857 20.6955 60.5302 20.4794 60.5556L20.832 61.7422L21.9598 62.2905L20.8536 64.5658C19.6261 63.9039 18.3694 63.2602 17.0833 62.635C15.7907 62.0065 14.4819 61.4028 13.157 60.8239L14.2632 58.5486L18.4577 60.5879C18.1158 59.6307 17.7728 58.7178 17.4286 57.8492L18.8378 54.9506Z" fill="#7E8AA0"/>
<path d="M15.4704 66.3841C14.5479 65.6984 14.3069 64.7843 14.7474 63.6415C14.8239 63.4431 14.9114 63.2568 15.01 63.0826L17.1825 64.2972C16.8079 64.7187 16.5599 65.0868 16.4385 65.4015C16.2882 65.7916 16.2938 66.1238 16.4552 66.3982C16.6166 66.6726 16.8924 66.885 17.2824 67.0354L17.2721 67.0314L17.9456 67.3028C18.4314 67.49 18.9773 67.6847 19.5831 67.8868L18.6376 70.3399C17.6734 69.9053 16.7533 69.5193 15.8775 69.1817C15.0016 68.8441 14.0536 68.5101 13.0335 68.1798C13.2281 67.7361 13.3715 67.3945 13.4639 67.155C13.5614 66.9018 13.6844 66.5523 13.8326 66.1065L15.4704 66.3841Z" fill="#7E8AA0"/>
<path d="M17.4495 74.5658C17.0983 75.7696 16.5649 76.5765 15.8495 76.9865C15.129 77.3874 14.3182 77.4564 13.4171 77.1935C12.5371 76.9368 11.9048 76.4467 11.52 75.7233C11.1373 74.9928 11.1215 74.0257 11.4728 72.8219C11.709 72.0123 12.0399 71.3755 12.4656 70.9115C12.8863 70.4384 13.3599 70.1374 13.8865 70.0084C14.406 69.8773 14.9438 69.8929 15.4999 70.0552C16.4081 70.3201 17.0484 70.8355 17.4208 71.6011C17.7953 72.3597 17.8049 73.3479 17.4495 74.5658ZM15.6667 73.9998C15.8002 73.5422 15.7907 73.1689 15.6382 72.88C15.4857 72.591 15.2265 72.3932 14.8604 72.2863C14.5154 72.1857 14.201 72.2162 13.917 72.3778C13.626 72.5373 13.4138 72.8459 13.2802 73.3035C13.1467 73.761 13.1583 74.1273 13.3149 74.4021C13.4715 74.677 13.7258 74.8658 14.0778 74.9685C14.4439 75.0753 14.7668 75.055 15.0467 74.9074C15.3265 74.7599 15.5332 74.4574 15.6667 73.9998Z" fill="#7E8AA0"/>
<path d="M14.0043 80.9386L9.93218 79.2339L10.3252 77.0805L16.0144 79.3598L15.4871 82.2491L12.6033 82.4273L15.2225 83.6992L14.715 86.4802L8.58737 86.6032L8.98034 84.4498L13.3793 84.3021L9.26273 82.9023L9.65176 80.7705L14.0043 80.9386Z" fill="#7E8AA0"/>
<path d="M14.2179 93.7455C14.1533 94.9978 13.8201 95.9059 13.2183 96.4696C12.6095 97.0257 11.8364 97.2795 10.899 97.2312C9.98356 97.184 9.25532 96.8527 8.71429 96.2374C8.17364 95.6147 7.93561 94.6772 8.00019 93.4248C8.04362 92.5826 8.21903 91.8867 8.52641 91.3372C8.82684 90.7799 9.2184 90.3779 9.70108 90.1311C10.1764 89.8839 10.7034 89.7752 11.282 89.8051C12.2267 89.8538 12.9685 90.2078 13.5072 90.8671C14.0464 91.519 14.2833 92.4785 14.2179 93.7455ZM12.3527 93.6052C12.3772 93.1292 12.282 92.7682 12.0671 92.5221C11.8521 92.276 11.5542 92.1432 11.1734 92.1235C10.8146 92.105 10.5156 92.2071 10.2765 92.4298C10.03 92.652 9.89452 93.0012 9.86998 93.4772C9.84543 93.9532 9.941 94.307 10.1567 94.5384C10.3724 94.7698 10.6633 94.895 11.0295 94.9138C11.4104 94.9335 11.7199 94.8393 11.9583 94.6313C12.1967 94.4233 12.3281 94.0813 12.3527 93.6052Z" fill="#7E8AA0"/>
<path d="M9.92463 97.8975C9.89979 98.5731 9.88428 99.1898 9.87811 99.7475L11.0439 99.7254C11.4398 99.7142 11.7489 99.6211 11.9714 99.446C12.1863 99.2638 12.2875 98.9528 12.275 98.513C12.2703 98.3444 12.251 98.1836 12.2173 98.0305C12.4894 98.0521 12.7647 98.0589 13.0432 98.051C13.1752 98.0473 13.4755 98.0314 13.9443 98.0034C14.0121 98.3243 14.0564 98.5945 14.0773 98.814C14.0982 99.0335 14.1137 99.3192 14.1236 99.671C14.148 100.529 13.96 101.143 13.5597 101.514C13.1519 101.877 12.5778 102.07 11.8374 102.091L9.97882 102.133C10.0033 102.477 10.0354 102.835 10.0754 103.208L8.12916 103.264C8.11834 102.882 7.98824 102.563 7.73884 102.306C7.48945 102.049 7.19543 101.9 6.85677 101.858L6.77188 98.8673C7.29562 99.2266 7.71788 99.6291 8.03865 100.075L7.97842 97.9527L9.92463 97.8975Z" fill="#7E8AA0"/>
<path d="M14.6036 108.092C13.5291 108.19 12.5411 108.298 11.6396 108.417C11.3197 108.459 11.0758 108.573 10.9078 108.758C10.739 108.935 10.6704 109.144 10.702 109.384C10.7337 109.624 10.8696 109.813 11.1098 109.952C11.3427 110.091 11.6465 110.151 12.0211 110.131C12.5756 110.073 12.9691 110.028 13.2018 109.997C13.6961 109.932 14.2359 109.846 14.8209 109.739L15.1649 112.346C14.1104 112.426 13.1178 112.527 12.1872 112.65C11.2566 112.773 10.2644 112.933 9.21059 113.132C9.16907 112.649 9.13151 112.28 9.09792 112.026C9.06242 111.757 9.00305 111.391 8.91982 110.929L10.4812 110.401C9.87748 110.31 9.41399 110.105 9.0907 109.785C8.76013 109.467 8.56366 109.071 8.50129 108.598C8.44371 108.162 8.49196 107.771 8.64603 107.425C8.79283 107.08 9.01926 106.806 9.32531 106.603C9.6304 106.393 9.98651 106.261 10.3936 106.207L11.964 106C12.931 105.872 13.7029 105.752 14.2797 105.639L14.6036 108.092Z" fill="#7E8AA0"/>
<path d="M12.8802 114.892L13.67 118.39C13.9718 118.261 14.1978 118.064 14.3481 117.797C14.4895 117.524 14.5134 117.181 14.4197 116.766C14.3519 116.465 14.2308 116.196 14.0566 115.957C13.8753 115.72 13.6595 115.547 13.4094 115.438C13.5372 114.905 13.6474 114.211 13.7399 113.356C14.2907 113.464 14.7826 113.778 15.2155 114.297C15.6396 114.81 15.9574 115.535 16.169 116.472C16.4436 117.688 16.3682 118.653 15.9427 119.365C15.5084 120.072 14.8334 120.529 13.9178 120.736C13.0237 120.938 12.2322 120.812 11.5434 120.358C10.8546 119.905 10.3721 119.067 10.0959 117.844C9.93117 117.114 9.90983 116.453 10.0319 115.862C10.154 115.271 10.4009 114.783 10.7726 114.398C11.1372 114.015 11.5985 113.76 12.1564 113.634C12.3424 113.592 12.4835 113.568 12.5797 113.561L12.8802 114.892ZM11.6822 117.327C11.763 117.685 11.8972 117.963 12.0848 118.161C12.2724 118.36 12.4947 118.478 12.7517 118.518L12.1799 115.986C11.9704 116.123 11.8195 116.304 11.7272 116.528C11.6278 116.753 11.6128 117.02 11.6822 117.327Z" fill="#7E8AA0"/>
<path d="M11.9545 124.805C11.8066 124.352 11.8025 123.902 11.9421 123.456C12.0818 123.009 12.3417 122.612 12.7219 122.264C13.0952 121.918 13.5467 121.659 14.0765 121.486C14.5994 121.316 15.1274 121.255 15.6604 121.305C16.1865 121.357 16.6528 121.521 17.0592 121.797C17.4563 122.069 17.7311 122.438 17.8836 122.905C18.061 123.449 18.1019 123.953 18.0062 124.416C17.9012 124.874 17.6425 125.275 17.2298 125.618C17.6272 125.488 18.2605 125.266 19.1299 124.952C19.9713 124.646 20.5663 124.437 20.9149 124.323L21.6861 126.686C20.3757 127.068 19.0129 127.489 17.5977 127.951C16.1825 128.413 14.8333 128.876 13.5503 129.341L12.8951 127.333L14.1033 126.603C13.5516 126.567 13.1005 126.391 12.75 126.073C12.3925 125.758 12.1274 125.335 11.9545 124.805ZM16.3561 124.607C16.2538 124.293 16.0708 124.064 15.8074 123.918C15.5347 123.768 15.238 123.745 14.9173 123.85C14.5618 123.966 14.3043 124.158 14.1449 124.426C13.9855 124.694 13.9604 124.995 14.0696 125.33C14.1947 125.713 14.3833 125.972 14.6352 126.106C14.8801 126.242 15.2187 126.239 15.651 126.098C15.895 126.019 16.0802 125.889 16.2065 125.709C16.3259 125.531 16.3955 125.342 16.4154 125.143C16.4282 124.946 16.4085 124.767 16.3561 124.607Z" fill="#7E8AA0"/>
<path d="M21.0713 131.459C21.5705 132.609 21.676 133.571 21.3878 134.343C21.0899 135.112 20.5104 135.684 19.6494 136.057C18.8085 136.422 18.0089 136.449 17.2506 136.139C16.4894 135.822 15.8592 135.088 15.3599 133.938C15.0242 133.164 14.8717 132.463 14.9026 131.834C14.9237 131.201 15.0956 130.667 15.4181 130.231C15.7339 129.798 16.1575 129.467 16.6889 129.236C17.5567 128.859 18.3785 128.846 19.1543 129.197C19.9272 129.541 20.5662 130.295 21.0713 131.459ZM19.3383 132.163C19.1486 131.726 18.9027 131.445 18.6007 131.32C18.2988 131.195 17.9729 131.209 17.6231 131.361C17.2934 131.504 17.0711 131.728 16.9559 132.034C16.8341 132.343 16.8681 132.716 17.0578 133.153C17.2476 133.59 17.4906 133.864 17.7867 133.976C18.0828 134.087 18.3991 134.07 18.7354 133.924C19.0852 133.772 19.3206 133.55 19.4416 133.257C19.5625 132.965 19.5281 132.6 19.3383 132.163Z" fill="#7E8AA0"/>
<path d="M22.7348 139.361C22.8908 139.643 22.9637 139.942 22.9537 140.258C22.9436 140.573 22.8588 140.867 22.6992 141.14C22.5297 141.409 22.3038 141.622 22.0213 141.778C21.7452 141.93 21.4512 142.005 21.1393 142.001C20.8238 141.991 20.5298 141.906 20.2574 141.747C19.985 141.587 19.7708 141.366 19.6149 141.084C19.4624 140.808 19.3912 140.512 19.4013 140.196C19.4114 139.881 19.4962 139.587 19.6557 139.315C19.8153 139.042 20.0331 138.83 20.3091 138.677C20.5916 138.521 20.8938 138.447 21.2157 138.453C21.5312 138.463 21.8252 138.548 22.0976 138.708C22.37 138.867 22.5824 139.085 22.7348 139.361Z" fill="#7E8AA0"/>
<path d="M21.4 145.459L24.9923 146.306C25.5555 144.792 26.036 143.41 26.4336 142.16L28.0801 144.565L27.6526 145.538C27.3575 146.184 27.1674 146.608 27.0824 146.808L28.2879 147.089L29.3227 146.381L30.7518 148.469C29.5688 149.207 28.3873 149.98 27.2073 150.788C26.0212 151.6 24.8487 152.438 23.6896 153.303L22.2606 151.215L26.1094 148.58C25.1085 148.403 24.1455 148.249 23.2205 148.118L21.4 145.459Z" fill="#7E8AA0"/>
<path d="M29.6658 154.046C28.6134 154.508 27.6998 154.265 26.9251 153.316C26.7906 153.151 26.672 152.983 26.5695 152.811L28.7005 151.525C28.8812 152.059 29.0782 152.457 29.2916 152.718C29.556 153.042 29.8474 153.202 30.1658 153.197C30.4841 153.193 30.8052 153.059 31.1289 152.794L31.1204 152.801L31.6896 152.35C32.0929 152.021 32.5323 151.643 33.0079 151.217L34.6709 153.253C33.8159 153.876 33.0249 154.484 32.2979 155.078C31.5709 155.671 30.8114 156.33 30.0193 157.052C29.7301 156.663 29.5044 156.37 29.342 156.171C29.1704 155.961 28.9276 155.681 28.6137 155.331L29.6658 154.046Z" fill="#7E8AA0"/>
<path d="M37.7541 156.378C38.626 157.279 39.063 158.142 39.0649 158.967C39.0564 159.791 38.7149 160.53 38.0403 161.182C37.3815 161.82 36.6426 162.126 35.8235 162.103C34.9994 162.073 34.1514 161.608 33.2795 160.707C32.6931 160.101 32.3037 159.498 32.1114 158.898C31.9087 158.299 31.8816 157.738 32.0303 157.217C32.1736 156.7 32.4535 156.241 32.8699 155.838C33.5498 155.18 34.3145 154.879 35.1641 154.935C36.0087 154.985 36.872 155.466 37.7541 156.378ZM36.3795 157.646C36.0481 157.304 35.7191 157.127 35.3926 157.117C35.066 157.106 34.7657 157.233 34.4916 157.499C34.2334 157.748 34.1041 158.037 34.1039 158.363C34.0984 158.695 34.2614 159.032 34.5928 159.375C34.9243 159.718 35.2482 159.889 35.5645 159.889C35.8809 159.889 36.1708 159.762 36.4344 159.507C36.7084 159.241 36.8507 158.951 36.8611 158.635C36.8715 158.318 36.711 157.989 36.3795 157.646Z" fill="#7E8AA0"/>
<path d="M41.5848 162.527L38.0873 165.22L36.411 163.813L41.2085 159.999L43.4576 161.887L42.1844 164.481L44.5863 162.835L46.7512 164.653L43.8238 170.038L42.1475 168.63L44.1974 164.735L40.9429 167.618L39.2835 166.225L41.5848 162.527Z" fill="#7E8AA0"/>
<path d="M52.8171 168.683C53.8731 169.359 54.497 170.098 54.6888 170.9C54.8705 171.704 54.7082 172.502 54.202 173.292C53.7077 174.064 53.0593 174.533 52.2567 174.698C51.4481 174.859 50.5157 174.602 49.4597 173.926C48.7494 173.471 48.2317 172.974 47.9065 172.435C47.5711 171.898 47.4157 171.359 47.4403 170.817C47.4609 170.282 47.6274 169.77 47.9398 169.282C48.45 168.486 49.1248 168.016 49.9644 167.875C50.7978 167.729 51.7487 167.999 52.8171 168.683ZM51.7716 170.234C51.3702 169.977 51.0094 169.881 50.6892 169.946C50.3689 170.01 50.106 170.203 49.9004 170.525C49.7066 170.827 49.6472 171.137 49.7223 171.455C49.7933 171.78 50.0296 172.07 50.431 172.327C50.8324 172.584 51.1871 172.676 51.4949 172.604C51.8028 172.531 52.0556 172.34 52.2533 172.031C52.459 171.71 52.5304 171.395 52.4678 171.084C52.4051 170.774 52.173 170.491 51.7716 170.234Z" fill="#7E8AA0"/>
<path d="M54.2984 174.469C54.8731 174.825 55.4012 175.144 55.8827 175.425L56.4408 174.401C56.627 174.052 56.6992 173.737 56.6572 173.457C56.6054 173.18 56.3853 172.938 55.997 172.731C55.8482 172.652 55.6989 172.589 55.5492 172.543C55.7027 172.317 55.845 172.081 55.976 171.835C56.0381 171.719 56.1731 171.45 56.3809 171.029C56.6932 171.129 56.9499 171.224 57.1509 171.315C57.352 171.405 57.6078 171.533 57.9185 171.699C58.6757 172.102 59.1162 172.57 59.2402 173.101C59.3542 173.636 59.2371 174.23 58.8887 174.883L58.0047 176.519C58.3158 176.668 58.6432 176.817 58.9871 176.967L58.0713 178.686C57.7348 178.506 57.3932 178.461 57.0464 178.551C56.6996 178.64 56.4242 178.822 56.2202 179.095L53.5798 177.688C54.1513 177.411 54.7101 177.243 55.2562 177.185L53.3826 176.187L54.2984 174.469Z" fill="#7E8AA0"/>
<path d="M65.4726 175.452C65.0252 176.434 64.63 177.346 64.287 178.188C64.1653 178.487 64.1432 178.755 64.2206 178.992C64.2913 179.227 64.4387 179.39 64.6629 179.481C64.887 179.572 65.1187 179.548 65.3578 179.408C65.5943 179.275 65.7966 179.04 65.9649 178.705C66.1887 178.194 66.3449 177.83 66.4334 177.613C66.6215 177.151 66.814 176.64 67.0109 176.078L69.4457 177.07C68.993 178.026 68.5896 178.939 68.2355 179.808C67.8814 180.677 67.5296 181.619 67.1801 182.632C66.7401 182.43 66.4013 182.28 66.1636 182.183C65.9123 182.08 65.5652 181.951 65.1222 181.794L65.4368 180.176C65.0592 180.656 64.6515 180.957 64.2136 181.08C63.773 181.209 63.3319 181.184 62.8904 181.004C62.483 180.838 62.1671 180.602 61.943 180.297C61.7161 179.999 61.5902 179.667 61.5652 179.3C61.5335 178.931 61.5951 178.556 61.75 178.176L62.3476 176.709C62.7155 175.806 62.9931 175.075 63.1805 174.518L65.4726 175.452Z" fill="#7E8AA0"/>
<path d="M70.5265 180.316L73.9566 181.362C73.9945 181.036 73.9348 180.742 73.7772 180.479C73.6105 180.221 73.3237 180.03 72.9169 179.906C72.6222 179.817 72.3281 179.788 72.0343 179.821C71.7384 179.861 71.4812 179.963 71.2627 180.127C70.8633 179.752 70.315 179.312 69.6176 178.808C69.9848 178.384 70.5009 178.112 71.1659 177.992C71.8218 177.878 72.6092 177.961 73.5281 178.241C74.7205 178.605 75.5209 179.148 75.9293 179.87C76.3285 180.598 76.3912 181.41 76.1175 182.308C75.8501 183.185 75.349 183.81 74.614 184.184C73.879 184.558 72.9117 184.562 71.7122 184.197C70.9968 183.978 70.4123 183.67 69.959 183.271C69.5056 182.872 69.2039 182.416 69.0537 181.902C68.9015 181.396 68.9088 180.869 69.0756 180.322C69.1312 180.14 69.1799 180.005 69.2218 179.918L70.5265 180.316ZM72.0494 182.563C72.4001 182.67 72.708 182.691 72.9731 182.626C73.2382 182.561 73.4516 182.427 73.6134 182.223L71.1303 181.466C71.146 181.716 71.2283 181.937 71.377 182.128C71.5236 182.326 71.7477 182.471 72.0494 182.563Z" fill="#7E8AA0"/>
<path d="M78.6809 186.029C78.214 185.933 77.821 185.714 77.5021 185.371C77.1832 185.029 76.9668 184.606 76.8529 184.104C76.7376 183.609 76.736 183.088 76.8481 182.542C76.9588 182.003 77.1677 181.515 77.4749 181.076C77.7806 180.645 78.1541 180.321 78.5953 180.105C79.0279 179.894 79.4848 179.838 79.9661 179.937C80.5264 180.052 80.984 180.266 81.3391 180.579C81.6855 180.897 81.9055 181.32 81.9991 181.848C82.0832 181.439 82.2038 180.779 82.361 179.868C82.5123 178.985 82.6249 178.365 82.6987 178.005L85.1338 178.506C84.8162 179.833 84.5077 181.226 84.2081 182.684C83.9085 184.142 83.6431 185.544 83.4117 186.889L81.3429 186.464L81.3071 185.053C81.0027 185.514 80.6257 185.819 80.1762 185.966C79.7253 186.12 79.2268 186.141 78.6809 186.029ZM80.6882 182.107C80.365 182.04 80.0749 182.086 79.8181 182.243C79.5526 182.405 79.386 182.652 79.3181 182.982C79.2428 183.348 79.2822 183.667 79.4361 183.938C79.59 184.21 79.8393 184.381 80.1841 184.451C80.5792 184.533 80.8972 184.497 81.1382 184.344C81.3777 184.199 81.5432 183.903 81.6347 183.458C81.6864 183.207 81.6652 182.981 81.5714 182.782C81.476 182.591 81.3466 182.437 81.1833 182.321C81.0185 182.212 80.8534 182.141 80.6882 182.107Z" fill="#7E8AA0"/>
<path d="M88.976 181.403C90.2226 181.539 91.1101 181.924 91.6387 182.557C92.1591 183.196 92.3685 183.982 92.2668 184.915C92.1674 185.827 91.7952 186.535 91.15 187.04C90.4975 187.544 89.548 187.728 88.3014 187.593C87.463 187.501 86.7782 187.286 86.2471 186.948C85.7078 186.617 85.3288 186.203 85.1099 185.707C84.8902 185.218 84.8118 184.686 84.8745 184.11C84.977 183.169 85.3728 182.449 86.0617 181.949C86.7433 181.448 87.7148 181.266 88.976 181.403ZM88.7296 183.257C88.2557 183.206 87.8898 183.28 87.6319 183.481C87.374 183.681 87.2244 183.971 87.1831 184.35C87.1441 184.708 87.229 185.012 87.4377 185.263C87.6455 185.522 87.9864 185.677 88.4602 185.729C88.9341 185.78 89.2927 185.705 89.536 185.503C89.7794 185.301 89.9209 185.018 89.9606 184.653C90.0019 184.274 89.9256 183.96 89.7315 183.71C89.5374 183.46 89.2035 183.309 88.7296 183.257Z" fill="#7E8AA0"/>
<path d="M96.6648 183.871C96.9875 183.875 97.2834 183.96 97.5525 184.125C97.8216 184.29 98.035 184.509 98.1927 184.783C98.3429 185.063 98.4158 185.365 98.4115 185.688C98.4072 186.003 98.3262 186.295 98.1686 186.564C98.0036 186.833 97.7844 187.047 97.5109 187.205C97.2374 187.362 96.9393 187.439 96.6167 187.434C96.3014 187.43 96.0092 187.346 95.7401 187.181C95.4709 187.016 95.2575 186.796 95.0999 186.523C94.9422 186.249 94.8655 185.955 94.8698 185.64C94.8741 185.317 94.9589 185.018 95.1239 184.741C95.2889 184.472 95.5082 184.259 95.7816 184.101C96.0551 183.943 96.3495 183.867 96.6648 183.871Z" fill="#7E8AA0"/>
<path d="M98.9972 188.105L101.58 185.469C100.576 184.203 99.6414 183.077 98.7775 182.091L101.688 181.926L102.299 182.795C102.699 183.382 102.964 183.763 103.091 183.94L103.955 183.053L103.884 181.801L106.41 181.658C106.431 183.053 106.481 184.464 106.562 185.891C106.643 187.326 106.754 188.763 106.895 190.202L104.369 190.346L104.105 185.689C103.436 186.454 102.806 187.199 102.215 187.923L98.9972 188.105Z" fill="#7E8AA0"/>
<path d="M110.622 185.472C110.473 186.612 109.792 187.268 108.58 187.44C108.369 187.47 108.164 187.485 107.963 187.484L107.965 184.995C108.516 185.116 108.958 185.153 109.292 185.106C109.706 185.047 109.993 184.88 110.154 184.605C110.315 184.331 110.366 183.986 110.307 183.573L110.309 183.584L110.217 182.863C110.144 182.348 110.048 181.776 109.929 181.149L112.532 180.779C112.623 181.832 112.734 182.824 112.866 183.753C112.998 184.682 113.169 185.673 113.378 186.725C112.895 186.771 112.527 186.812 112.273 186.848C112.004 186.887 111.639 186.95 111.178 187.038L110.622 185.472Z" fill="#7E8AA0"/>
<path d="M116.801 179.756C118.023 179.476 118.988 179.548 119.695 179.973C120.396 180.407 120.851 181.081 121.061 181.996C121.266 182.89 121.146 183.681 120.702 184.369C120.251 185.06 119.414 185.545 118.192 185.825C117.37 186.013 116.652 186.035 116.04 185.889C115.421 185.752 114.928 185.486 114.558 185.089C114.191 184.699 113.942 184.222 113.813 183.657C113.602 182.735 113.739 181.925 114.226 181.226C114.706 180.529 115.564 180.039 116.801 179.756ZM117.176 181.589C116.711 181.695 116.39 181.885 116.212 182.159C116.034 182.433 115.988 182.756 116.073 183.128C116.153 183.478 116.333 183.738 116.612 183.907C116.894 184.083 117.266 184.118 117.731 184.012C118.196 183.905 118.51 183.717 118.674 183.446C118.837 183.175 118.878 182.861 118.796 182.504C118.711 182.132 118.536 181.86 118.271 181.688C118.005 181.515 117.64 181.482 117.176 181.589Z" fill="#7E8AA0"/>
<path d="M124.045 179.658L124.541 184.045L122.469 184.751L121.687 178.672L124.466 177.724L126.028 180.156L125.861 177.249L128.537 176.336L131.631 181.627L129.559 182.333L127.286 178.564L128.071 182.841L126.02 183.54L124.045 179.658Z" fill="#7E8AA0"/>
<path d="M135.123 173.229C136.248 172.675 137.203 172.523 137.989 172.774C138.771 173.035 139.37 173.586 139.785 174.428C140.19 175.25 140.255 176.048 139.982 176.82C139.701 177.596 138.999 178.26 137.874 178.814C137.117 179.187 136.424 179.373 135.795 179.373C135.162 179.382 134.62 179.236 134.169 178.935C133.721 178.64 133.37 178.233 133.114 177.713C132.696 176.865 132.643 176.044 132.956 175.253C133.263 174.464 133.985 173.79 135.123 173.229ZM135.91 174.926C135.482 175.137 135.213 175.396 135.103 175.703C134.993 176.011 135.022 176.336 135.191 176.678C135.35 177 135.585 177.212 135.896 177.312C136.21 177.419 136.581 177.367 137.008 177.156C137.436 176.946 137.698 176.69 137.795 176.389C137.892 176.087 137.859 175.772 137.697 175.444C137.529 175.101 137.296 174.877 136.998 174.77C136.7 174.664 136.338 174.715 135.91 174.926Z" fill="#7E8AA0"/>
<path d="M140.841 174.954C141.443 174.646 141.989 174.359 142.479 174.093L141.892 173.086C141.689 172.745 141.457 172.521 141.196 172.412C140.932 172.313 140.611 172.376 140.233 172.602C140.088 172.688 139.957 172.783 139.84 172.887C139.726 172.639 139.598 172.395 139.455 172.156C139.388 172.043 139.227 171.788 138.974 171.392C139.222 171.177 139.436 171.006 139.617 170.881C139.799 170.756 140.041 170.603 140.343 170.423C141.08 169.984 141.708 169.848 142.227 170.017C142.743 170.196 143.191 170.604 143.57 171.24L144.513 172.842C144.801 172.653 145.099 172.45 145.405 172.234L146.402 173.906C146.074 174.101 145.859 174.37 145.756 174.714C145.653 175.057 145.666 175.386 145.795 175.702L143.225 177.234C143.283 176.602 143.429 176.037 143.662 175.539L141.838 176.626L140.841 174.954Z" fill="#7E8AA0"/>
<path d="M147.462 165.899C148.071 166.79 148.647 167.6 149.191 168.329C149.383 168.588 149.602 168.745 149.845 168.802C150.082 168.863 150.298 168.821 150.492 168.676C150.686 168.532 150.785 168.321 150.789 168.043C150.797 167.772 150.701 167.478 150.501 167.16C150.18 166.705 149.949 166.383 149.809 166.195C149.511 165.795 149.173 165.365 148.794 164.907L150.902 163.336C151.486 164.218 152.059 165.035 152.62 165.788C153.18 166.54 153.804 167.328 154.491 168.152C154.09 168.423 153.786 168.636 153.58 168.789C153.363 168.951 153.073 169.181 152.709 169.479L151.487 168.373C151.703 168.945 151.749 169.449 151.628 169.888C151.511 170.332 151.261 170.696 150.879 170.981C150.526 171.244 150.161 171.392 149.784 171.426C149.411 171.466 149.062 171.402 148.735 171.234C148.403 171.07 148.114 170.823 147.868 170.494L146.922 169.224C146.339 168.442 145.858 167.826 145.478 167.378L147.462 165.899Z" fill="#7E8AA0"/>
<path d="M154.239 164.09L156.909 161.695C156.65 161.494 156.367 161.393 156.06 161.392C155.754 161.401 155.442 161.548 155.125 161.832C154.896 162.038 154.72 162.275 154.596 162.543C154.477 162.817 154.431 163.09 154.458 163.362C153.931 163.51 153.271 163.752 152.479 164.088C152.305 163.554 152.34 162.971 152.582 162.341C152.823 161.72 153.301 161.089 154.016 160.448C154.944 159.615 155.823 159.211 156.653 159.235C157.482 159.27 158.21 159.636 158.836 160.335C159.448 161.017 159.724 161.77 159.664 162.592C159.604 163.415 159.107 164.245 158.174 165.082C157.617 165.582 157.051 165.922 156.475 166.104C155.899 166.285 155.352 166.308 154.835 166.171C154.323 166.039 153.876 165.76 153.494 165.335C153.367 165.193 153.277 165.081 153.224 165.001L154.239 164.09ZM156.95 163.948C157.223 163.704 157.4 163.451 157.482 163.191C157.564 162.93 157.559 162.678 157.468 162.434L155.536 164.168C155.758 164.284 155.99 164.327 156.23 164.299C156.475 164.276 156.715 164.159 156.95 163.948Z" fill="#7E8AA0"/>
<path d="M163.347 160.066C163.023 160.416 162.632 160.639 162.174 160.735C161.716 160.83 161.243 160.797 160.754 160.635C160.27 160.477 159.824 160.209 159.414 159.831C159.01 159.457 158.7 159.026 158.484 158.536C158.273 158.051 158.189 157.564 158.232 157.075C158.276 156.596 158.464 156.176 158.798 155.815C159.186 155.395 159.606 155.114 160.057 154.972C160.508 154.84 160.984 154.87 161.485 155.064C161.178 154.78 160.675 154.335 159.977 153.729C159.3 153.143 158.827 152.726 158.558 152.477L160.246 150.652C161.217 151.61 162.25 152.595 163.343 153.605C164.436 154.616 165.498 155.568 166.529 156.462L165.096 158.012L163.869 157.313C164.107 157.812 164.172 158.292 164.066 158.753C163.965 159.219 163.725 159.657 163.347 160.066ZM161.028 156.319C160.804 156.561 160.693 156.833 160.694 157.134C160.696 157.445 160.821 157.715 161.068 157.944C161.343 158.198 161.636 158.33 161.948 158.338C162.26 158.347 162.535 158.222 162.774 157.963C163.048 157.667 163.182 157.376 163.176 157.091C163.175 156.811 163.008 156.517 162.674 156.208C162.486 156.034 162.282 155.935 162.063 155.913C161.85 155.895 161.651 155.926 161.467 156.006C161.289 156.091 161.143 156.195 161.028 156.319Z" fill="#7E8AA0"/>
<path d="M164.713 148.862C165.474 147.866 166.262 147.305 167.077 147.18C167.893 147.065 168.675 147.293 169.421 147.862C170.149 148.419 170.563 149.104 170.661 149.917C170.755 150.736 170.422 151.644 169.661 152.641C169.149 153.311 168.611 153.786 168.047 154.066C167.484 154.356 166.934 154.466 166.396 154.397C165.864 154.332 165.368 154.124 164.908 153.772C164.156 153.198 163.744 152.487 163.672 151.638C163.596 150.796 163.943 149.87 164.713 148.862ZM166.172 150.032C165.883 150.411 165.757 150.763 165.796 151.087C165.834 151.412 166.004 151.689 166.308 151.921C166.593 152.139 166.897 152.224 167.221 152.175C167.549 152.131 167.859 151.92 168.148 151.541C168.437 151.162 168.558 150.816 168.511 150.503C168.464 150.191 168.295 149.923 168.003 149.7C167.7 149.469 167.392 149.372 167.077 149.409C166.763 149.445 166.461 149.653 166.172 150.032Z" fill="#7E8AA0"/>
<path d="M170.801 143.558C170.972 143.284 171.198 143.075 171.478 142.93C171.758 142.785 172.056 142.715 172.372 142.722C172.69 142.739 172.986 142.832 173.26 143.003C173.527 143.17 173.736 143.39 173.884 143.664C174.029 143.945 174.099 144.243 174.092 144.558C174.086 144.874 173.997 145.169 173.826 145.442C173.66 145.71 173.436 145.916 173.156 146.061C172.875 146.206 172.577 146.276 172.262 146.269C171.946 146.263 171.655 146.176 171.387 146.009C171.113 145.839 170.9 145.611 170.749 145.327C170.604 145.046 170.535 144.748 170.542 144.433C170.548 144.117 170.635 143.826 170.801 143.558Z" fill="#7E8AA0"/>
<path d="M176.776 141.751L175.765 138.202C174.168 138.448 172.728 138.702 171.443 138.964L172.74 136.354L173.798 136.253C174.506 136.196 174.968 136.155 175.185 136.132L174.843 134.942L173.72 134.384L174.846 132.118C176.068 132.791 177.319 133.446 178.599 134.083C179.886 134.723 181.19 135.338 182.509 135.929L181.383 138.194L177.207 136.118C177.54 137.078 177.875 137.994 178.211 138.865L176.776 141.751Z" fill="#7E8AA0"/>
<path d="M180.245 130.348C181.162 131.042 181.395 131.958 180.944 133.097C180.866 133.295 180.777 133.48 180.676 133.654L178.515 132.42C178.893 132.002 179.144 131.636 179.269 131.322C179.422 130.933 179.42 130.601 179.261 130.325C179.102 130.049 178.828 129.835 178.439 129.681L178.449 129.685L177.778 129.408C177.294 129.216 176.75 129.016 176.146 128.809L177.113 126.364C178.074 126.807 178.99 127.202 179.863 127.547C180.736 127.892 181.681 128.235 182.698 128.574C182.5 129.016 182.353 129.356 182.259 129.595C182.159 129.847 182.033 130.196 181.881 130.64L180.245 130.348Z" fill="#7E8AA0"/>
<path d="M178.339 122.149C178.701 120.949 179.241 120.146 179.961 119.743C180.685 119.348 181.496 119.286 182.395 119.557C183.272 119.822 183.9 120.318 184.279 121.044C184.655 121.778 184.662 122.745 184.3 123.946C184.057 124.754 183.72 125.387 183.29 125.848C182.865 126.317 182.389 126.614 181.861 126.738C181.341 126.865 180.803 126.844 180.248 126.677C179.343 126.404 178.707 125.883 178.341 125.114C177.974 124.352 177.973 123.364 178.339 122.149ZM180.117 122.731C179.979 123.187 179.985 123.561 180.135 123.851C180.285 124.141 180.543 124.341 180.908 124.452C181.252 124.555 181.567 124.528 181.852 124.369C182.144 124.212 182.359 123.905 182.497 123.449C182.634 122.992 182.626 122.626 182.472 122.35C182.318 122.073 182.065 121.882 181.714 121.776C181.349 121.666 181.026 121.684 180.745 121.829C180.464 121.974 180.254 122.275 180.117 122.731Z" fill="#7E8AA0"/>
<path d="M181.841 115.807L185.898 117.548L185.485 119.698L179.817 117.368L180.37 114.484L183.255 114.331L180.647 113.036L181.179 110.259L187.308 110.191L186.896 112.341L182.496 112.449L186.6 113.886L186.192 116.014L181.841 115.807Z" fill="#7E8AA0"/>
<path d="M181.741 102.999C181.817 101.747 182.158 100.842 182.765 100.284C183.378 99.7332 184.154 99.4862 185.091 99.5429C186.006 99.5982 186.731 99.936 187.267 100.556C187.802 101.184 188.031 102.123 187.956 103.375C187.905 104.217 187.723 104.911 187.411 105.458C187.105 106.012 186.71 106.411 186.225 106.653C185.748 106.896 185.22 107 184.642 106.965C183.697 106.908 182.959 106.548 182.426 105.884C181.893 105.227 181.664 104.265 181.741 102.999ZM183.605 103.156C183.576 103.632 183.668 103.993 183.881 104.241C184.094 104.489 184.39 104.625 184.771 104.648C185.13 104.67 185.429 104.57 185.671 104.35C185.919 104.13 186.058 103.782 186.086 103.306C186.115 102.83 186.023 102.476 185.809 102.242C185.595 102.009 185.306 101.881 184.94 101.859C184.559 101.836 184.249 101.927 184.008 102.133C183.768 102.339 183.634 102.68 183.605 103.156Z" fill="#7E8AA0"/>
<path d="M186.071 98.8853C186.102 98.2099 186.123 97.5934 186.134 97.0357L184.968 97.0475C184.572 97.0552 184.262 97.1456 184.038 97.3186C183.822 97.4989 183.718 97.809 183.726 98.2489C183.729 98.4175 183.747 98.5785 183.78 98.7319C183.508 98.7079 183.232 98.6986 182.954 98.704C182.822 98.7066 182.521 98.7198 182.052 98.7436C181.988 98.4221 181.946 98.1516 181.927 97.9319C181.908 97.7122 181.895 97.4264 181.888 97.0745C181.871 96.2167 182.065 95.6041 182.468 95.2368C182.879 94.8768 183.455 94.6895 184.196 94.6751L186.054 94.6498C186.033 94.3055 186.004 93.9467 185.967 93.5733L187.914 93.5354C187.922 93.9166 188.049 94.2369 188.296 94.4961C188.543 94.7554 188.836 94.9073 189.174 94.9521L189.232 97.9435C188.712 97.5796 188.293 97.1733 187.976 96.7248L188.018 98.8474L186.071 98.8853Z" fill="#7E8AA0"/>
<path d="M181.483 88.6491C182.558 88.5612 183.547 88.4618 184.45 88.3508C184.77 88.3114 185.015 88.2001 185.184 88.0167C185.355 87.8405 185.425 87.6324 185.396 87.3922C185.366 87.152 185.232 86.9616 184.993 86.8211C184.761 86.6796 184.458 86.6172 184.083 86.6337C183.528 86.6871 183.134 86.7282 182.902 86.7568C182.407 86.8177 181.866 86.8989 181.28 87.0005L180.959 84.3912C182.015 84.3205 183.008 84.2279 183.94 84.1134C184.871 83.9988 185.865 83.8471 186.92 83.6582C186.958 84.1413 186.992 84.5102 187.023 84.7649C187.056 85.0342 187.112 85.4004 187.192 85.8636L185.626 86.3775C186.228 86.4734 186.69 86.6826 187.011 87.0052C187.338 87.327 187.531 87.7244 187.589 88.1975C187.643 88.6342 187.591 89.0248 187.434 89.3692C187.284 89.7127 187.055 89.9847 186.748 90.1851C186.441 90.3927 186.083 90.5216 185.676 90.5718L184.104 90.7651C183.136 90.8841 182.363 90.9976 181.785 91.1056L181.483 88.6491Z" fill="#7E8AA0"/>
<path d="M183.267 81.8654L182.508 78.3606C182.205 78.4862 181.977 78.6818 181.825 78.9474C181.681 79.2187 181.654 79.5621 181.744 79.9778C181.809 80.2789 181.928 80.5496 182.1 80.7899C182.279 81.0287 182.493 81.2037 182.742 81.3148C182.61 81.8463 182.493 82.5392 182.393 83.3938C181.843 83.2802 181.354 82.9621 180.926 82.4396C180.507 81.9226 180.195 81.1947 179.992 80.2558C179.728 79.0373 179.812 78.0738 180.244 77.365C180.685 76.6619 181.363 76.211 182.281 76.0124C183.177 75.8185 183.967 75.9512 184.652 76.4108C185.337 76.8703 185.812 77.7129 186.077 78.9385C186.235 79.6695 186.251 80.3302 186.123 80.9205C185.996 81.5108 185.745 81.9967 185.37 82.378C185.002 82.7578 184.538 83.0082 183.979 83.1292C183.793 83.1696 183.651 83.1926 183.555 83.1985L183.267 81.8654ZM184.486 79.4404C184.409 79.0821 184.277 78.8029 184.091 78.6031C183.905 78.4032 183.684 78.2823 183.427 78.2403L183.977 80.7775C184.187 80.6419 184.34 80.4625 184.434 80.2395C184.535 80.015 184.553 79.7486 184.486 79.4404Z" fill="#7E8AA0"/>
<path d="M184.28 71.9605C184.424 72.4149 184.424 72.8649 184.281 73.3103C184.137 73.7557 183.874 74.1506 183.49 74.495C183.114 74.8372 182.66 75.0924 182.129 75.2605C181.605 75.4265 181.076 75.4822 180.543 75.4277C180.018 75.371 179.553 75.2028 179.149 74.923C178.754 74.6479 178.483 74.2762 178.335 73.8078C178.162 73.2624 178.126 72.7586 178.225 72.2962C178.334 71.8387 178.597 71.4403 179.012 71.101C178.614 71.2272 177.979 71.4436 177.107 71.7504C176.262 72.0484 175.666 72.2527 175.316 72.3633L174.566 69.9932C175.88 69.6235 177.246 69.2141 178.665 68.7649C180.085 68.3157 181.438 67.8643 182.725 67.4107L183.362 69.4243L182.148 70.1433C182.699 70.1842 183.148 70.365 183.496 70.6857C183.851 71.0042 184.112 71.4291 184.28 71.9605ZM179.877 72.1196C179.977 72.4342 180.158 72.6654 180.42 72.8132C180.691 72.9658 180.988 72.9911 181.309 72.8894C181.666 72.7765 181.925 72.5868 182.087 72.3202C182.248 72.0536 182.276 71.7526 182.17 71.417C182.048 71.0324 181.862 70.7722 181.611 70.6361C181.368 70.4979 181.029 70.4974 180.596 70.6346C180.351 70.7121 180.164 70.8403 180.037 71.0192C179.916 71.196 179.844 71.3839 179.823 71.583C179.808 71.7799 179.826 71.9588 179.877 72.1196Z" fill="#7E8AA0"/>
<path d="M175.223 65.226C174.734 64.0713 174.637 63.1089 174.932 62.3389C175.237 61.5728 175.821 61.0067 176.686 60.6406C177.53 60.2832 178.33 60.263 179.085 60.5802C179.844 60.9041 180.467 61.6434 180.956 62.7982C181.285 63.5747 181.431 64.2773 181.395 64.906C181.368 65.5385 181.191 66.0712 180.865 66.5041C180.545 66.9341 180.119 67.262 179.585 67.488C178.714 67.8569 177.892 67.8625 177.12 67.5048C176.35 67.1538 175.718 66.3943 175.223 65.226ZM176.962 64.5373C177.148 64.9763 177.391 65.2594 177.692 65.3869C177.993 65.5143 178.319 65.5037 178.67 65.355C179.001 65.2149 179.226 64.9924 179.343 64.6877C179.468 64.3801 179.437 64.0068 179.251 63.5679C179.066 63.129 178.825 62.8525 178.53 62.7386C178.235 62.6247 177.918 62.6392 177.581 62.7822C177.23 62.9309 176.992 63.1509 176.869 63.4421C176.745 63.7333 176.776 64.0984 176.962 64.5373Z" fill="#7E8AA0"/>
<path d="M173.63 57.3096C173.476 57.0258 173.406 56.7262 173.419 56.4108C173.432 56.0954 173.519 55.8022 173.681 55.5312C173.853 55.2632 174.081 55.0525 174.365 54.899C174.642 54.749 174.937 54.6773 175.249 54.6837C175.564 54.6966 175.857 54.784 176.128 54.9459C176.399 55.1079 176.611 55.3308 176.765 55.6146C176.915 55.892 176.983 56.1884 176.971 56.5038C176.958 56.8192 176.87 57.1124 176.708 57.3834C176.546 57.6543 176.327 57.8648 176.049 58.0148C175.766 58.1682 175.463 58.2403 175.141 58.2309C174.825 58.218 174.532 58.1306 174.261 57.9686C173.99 57.8067 173.78 57.587 173.63 57.3096Z" fill="#7E8AA0"/>
<path d="M175.019 51.2239L171.434 50.345C170.857 51.8541 170.365 53.2317 169.956 54.4778L168.331 52.0578L168.767 51.0892C169.068 50.4455 169.262 50.0238 169.349 49.8242L168.146 49.5323L167.105 50.2313L165.694 48.131C166.884 47.4029 168.072 46.6403 169.259 45.8431C170.452 45.0418 171.632 44.2141 172.799 43.3601L174.209 45.4605L170.337 48.0605C171.337 48.2463 172.298 48.4089 173.222 48.5482L175.019 51.2239Z" fill="#7E8AA0"/>
<path d="M166.83 42.5636C167.886 42.1111 168.798 42.3625 169.564 43.3178C169.697 43.4837 169.814 43.6531 169.915 43.8259L167.772 45.0929C167.597 44.5572 167.403 44.1577 167.192 43.8946C166.93 43.5685 166.641 43.4062 166.322 43.4077C166.004 43.4093 165.682 43.5408 165.355 43.8023L165.364 43.7955L164.791 44.2411C164.385 44.5669 163.942 44.9408 163.463 45.3628L161.818 43.312C162.678 42.697 163.475 42.0959 164.207 41.5086C164.939 40.9214 165.704 40.2699 166.503 39.5542C166.789 39.9456 167.012 40.2414 167.172 40.4416C167.342 40.6532 167.582 40.9353 167.893 41.2876L166.83 42.5636Z" fill="#7E8AA0"/>
<path d="M158.762 40.1599C157.898 39.251 157.469 38.3842 157.475 37.5596C157.49 36.7352 157.838 35.9997 158.519 35.3531C159.183 34.7216 159.925 34.4214 160.744 34.4526C161.568 34.4891 162.411 34.9619 163.275 35.8708C163.856 36.4821 164.24 37.0884 164.427 37.6897C164.625 38.2912 164.647 38.852 164.493 39.372C164.345 39.8869 164.062 40.344 163.642 40.7431C162.956 41.3948 162.188 41.6891 161.339 41.626C160.495 41.5682 159.636 41.0795 158.762 40.1599ZM160.148 38.9036C160.477 39.2491 160.804 39.4286 161.13 39.4421C161.457 39.4556 161.758 39.331 162.035 39.0683C162.295 38.8207 162.427 38.5336 162.43 38.2069C162.438 37.8751 162.278 37.5365 161.95 37.191C161.622 36.8454 161.299 36.6713 160.983 36.6684C160.667 36.6656 160.376 36.7904 160.11 37.043C159.833 37.3057 159.689 37.5951 159.675 37.9112C159.662 38.2273 159.82 38.5581 160.148 38.9036Z" fill="#7E8AA0"/>
<path d="M154.986 33.9773L158.508 31.3148L160.171 32.7373L155.34 36.5086L153.108 34.6L154.404 32.0177L151.988 33.642L149.839 31.8048L152.814 26.4465L154.478 27.8691L152.394 31.7457L155.674 28.8914L157.321 30.2997L154.986 33.9773Z" fill="#7E8AA0"/>
<path d="M143.809 27.7217C142.759 27.0361 142.142 26.2914 141.957 25.4878C141.783 24.6819 141.952 23.886 142.465 23.1001C142.967 22.3325 143.619 21.8697 144.423 21.7115C145.233 21.5573 146.163 21.823 147.213 22.5086C147.919 22.9696 148.433 23.4712 148.753 24.0132C149.084 24.5532 149.234 25.0938 149.205 25.6351C149.18 26.1703 149.008 26.6804 148.692 27.1655C148.175 27.9576 147.496 28.4207 146.655 28.5549C145.82 28.693 144.872 28.4153 143.809 27.7217ZM144.869 26.18C145.268 26.4406 145.628 26.5398 145.948 26.4778C146.269 26.4157 146.534 26.2251 146.742 25.9058C146.939 25.6049 147.001 25.2951 146.929 24.9765C146.86 24.6517 146.627 24.359 146.228 24.0984C145.829 23.8378 145.475 23.7425 145.166 23.8126C144.858 23.8827 144.603 24.0712 144.403 24.3782C144.194 24.6975 144.12 25.0125 144.18 25.3231C144.24 25.6337 144.469 25.9194 144.869 26.18Z" fill="#7E8AA0"/>
<path d="M142.38 21.9228C141.808 21.5616 141.283 21.2381 140.804 20.9522L140.237 21.9711C140.047 22.3189 139.972 22.6329 140.012 22.9132C140.061 23.1906 140.279 23.4345 140.666 23.6449C140.814 23.7255 140.962 23.7898 141.112 23.8376C140.956 24.0619 140.812 24.2964 140.679 24.5412C140.615 24.6571 140.478 24.9247 140.267 25.3439C139.955 25.2412 139.699 25.1436 139.499 25.0513C139.299 24.959 139.044 24.8287 138.735 24.6604C137.981 24.2501 137.545 23.7788 137.426 23.2463C137.316 22.7108 137.439 22.1179 137.793 21.4673L138.692 19.8399C138.382 19.688 138.056 19.5355 137.713 19.3824L138.644 17.6724C138.979 17.8547 139.32 17.9027 139.668 17.8164C140.016 17.7301 140.292 17.5511 140.499 17.2794L143.127 18.71C142.553 18.982 141.992 19.1446 141.446 19.1977L143.31 20.2128L142.38 21.9228Z" fill="#7E8AA0"/>
<path d="M131.214 20.8403C131.671 19.8625 132.074 18.9541 132.424 18.115C132.549 17.8173 132.573 17.5494 132.498 17.3113C132.429 17.076 132.283 16.9117 132.06 16.8184C131.837 16.7251 131.605 16.7475 131.364 16.8855C131.127 17.0167 130.922 17.2492 130.751 17.583C130.523 18.0916 130.363 18.4542 130.273 18.6707C130.081 19.1309 129.884 19.6406 129.682 20.2001L127.256 19.1867C127.717 18.2349 128.129 17.326 128.49 16.4598C128.852 15.5937 129.212 14.6553 129.571 13.6448C130.009 13.8517 130.347 14.0045 130.583 14.1035C130.834 14.2081 131.18 14.3406 131.621 14.5012L131.292 16.1163C131.674 15.6399 132.084 15.3425 132.523 15.2238C132.965 15.0984 133.406 15.1276 133.846 15.3113C134.252 15.4809 134.566 15.7192 134.787 16.0263C135.011 16.3266 135.134 16.6601 135.156 17.0268C135.184 17.3963 135.119 17.7705 134.961 18.1495L134.351 19.6111C133.975 20.511 133.691 21.2388 133.498 21.7942L131.214 20.8403Z" fill="#7E8AA0"/>
<path d="M126.204 15.9314L122.783 14.8551C122.743 15.1805 122.8 15.4752 122.955 15.7393C123.119 15.9986 123.404 16.1921 123.81 16.3198C124.104 16.4122 124.398 16.4432 124.692 16.4127C124.988 16.3752 125.246 16.2758 125.466 16.1144C125.862 16.4927 126.407 16.9369 127.099 17.447C126.729 17.8685 126.21 18.1358 125.544 18.2491C124.887 18.3577 124.1 18.2678 123.184 17.9794C121.995 17.6052 121.199 17.0551 120.797 16.329C120.405 15.5981 120.349 14.7849 120.631 13.8895C120.906 13.0151 121.413 12.3943 122.151 12.0269C122.889 11.6596 123.857 11.6641 125.053 12.0405C125.766 12.265 126.348 12.5787 126.798 12.9816C127.248 13.3845 127.545 13.8434 127.691 14.3581C127.839 14.8659 127.827 15.3926 127.655 15.9382C127.598 16.1201 127.548 16.2543 127.505 16.3408L126.204 15.9314ZM124.701 13.6711C124.351 13.5611 124.044 13.5373 123.778 13.5998C123.512 13.6622 123.298 13.7946 123.134 13.9968L125.61 14.776C125.597 14.5257 125.517 14.3044 125.37 14.1121C125.225 13.9127 125.002 13.7658 124.701 13.6711Z" fill="#7E8AA0"/>
<path d="M118.101 10.146C118.567 10.2461 118.958 10.4688 119.274 10.8141C119.589 11.1595 119.802 11.5839 119.912 12.0874C120.022 12.5838 120.019 13.1044 119.902 13.6493C119.787 14.1871 119.574 14.6738 119.263 15.1096C118.953 15.5381 118.577 15.8586 118.134 16.071C117.699 16.2777 117.242 16.3295 116.761 16.2264C116.202 16.1063 115.746 15.8884 115.394 15.5728C115.051 15.2515 114.834 14.8263 114.746 14.2972C114.658 14.7059 114.531 15.365 114.366 16.2746C114.207 17.1555 114.089 17.7752 114.012 18.1337L111.581 17.6118C111.911 16.2874 112.231 14.8975 112.544 13.442C112.857 11.9865 113.134 10.5873 113.378 9.24447L115.443 9.68784L115.466 11.0992C115.774 10.6404 116.154 10.3394 116.605 10.1961C117.057 10.0457 117.556 10.029 118.101 10.146ZM116.059 14.0503C116.381 14.1196 116.672 14.077 116.93 13.9224C117.197 13.7622 117.366 13.5172 117.436 13.1874C117.515 12.8217 117.478 12.5026 117.327 12.23C117.175 11.9575 116.928 11.7843 116.584 11.7104C116.189 11.6257 115.871 11.6586 115.629 11.8091C115.388 11.9524 115.22 12.2464 115.124 12.6909C115.07 12.9418 115.089 13.1672 115.182 13.367C115.275 13.5596 115.403 13.7146 115.565 13.832C115.729 13.9421 115.894 14.0149 116.059 14.0503Z" fill="#7E8AA0"/>
<path d="M107.765 14.6802C106.52 14.5333 105.635 14.141 105.113 13.5033C104.598 12.8592 104.395 12.0711 104.505 11.1389C104.613 10.2285 104.991 9.5237 105.641 9.02439C106.298 8.52594 107.249 8.35019 108.495 8.49713C109.332 8.59596 110.015 8.81683 110.543 9.15974C111.079 9.49624 111.455 9.91343 111.669 10.4113C111.884 10.9019 111.958 11.4349 111.89 12.0103C111.779 12.9497 111.377 13.6666 110.684 14.1607C109.998 14.6557 109.025 14.8289 107.765 14.6802ZM108.028 12.8283C108.501 12.8841 108.868 12.8129 109.127 12.6147C109.387 12.4164 109.539 12.1279 109.584 11.7492C109.626 11.3923 109.544 11.0873 109.337 10.834C109.132 10.5735 108.792 10.4153 108.319 10.3594C107.846 10.3035 107.486 10.3756 107.241 10.5756C106.996 10.7756 106.852 11.0577 106.809 11.4218C106.765 11.8005 106.838 12.1156 107.03 12.3672C107.222 12.6187 107.554 12.7724 108.028 12.8283Z" fill="#7E8AA0"/>
<path d="M100.098 12.1445C99.7757 12.1372 99.4806 12.0499 99.2129 11.8826C98.9453 11.7152 98.7338 11.4941 98.5786 11.2192C98.4309 10.9372 98.3607 10.6348 98.3679 10.3123C98.3749 9.997 98.4585 9.70546 98.6185 9.43764C98.7859 9.16999 99.007 8.95856 99.2819 8.80334C99.5568 8.64812 99.8555 8.57412 100.178 8.58135C100.493 8.58841 100.785 8.67562 101.052 8.84299C101.32 9.01036 101.532 9.23148 101.687 9.50636C101.842 9.78124 101.916 10.0763 101.909 10.3916C101.902 10.7141 101.814 11.0129 101.647 11.2879C101.479 11.5556 101.258 11.767 100.983 11.9222C100.709 12.0774 100.414 12.1515 100.098 12.1445Z" fill="#7E8AA0"/>
</svg>
